<?xml version="1.0" encoding="UTF-8"?>
<svg version="1.1" xmlns="http://www.w3.org/2000/svg" width="19" height="19">
<path d="M0 0 C2.76375 -0.04125 5.5275 -0.0825 8.375 -0.125 C9.67896729 -0.15231201 9.67896729 -0.15231201 11.00927734 -0.18017578 C13.00703478 -0.19473738 15.00467217 -0.09956726 17 0 C19 2 19 2 19.125 4.375 C19.08375 5.24125 19.0425 6.1075 19 7 C19 9.37536547 19.0300613 11.75153255 19.125 14.125 C19 17 19 17 17 19 C14.08274582 19.14557157 11.28685195 19.18598967 8.375 19.125 C4.229375 19.063125 4.229375 19.063125 0 19 C0 12.73 0 6.46 0 0 Z M7 4 C7 4.99 7 5.98 7 7 C8.32 7 9.64 7 11 7 C10.67 6.01 10.34 5.02 10 4 C9.01 4 8.02 4 7 4 Z M7 12 C7 12.99 7 13.98 7 15 C8.32 14.67 9.64 14.34 11 14 C11 13.34 11 12.68 11 12 C9.68 12 8.36 12 7 12 Z " fill="#FFFFFF" transform="translate(0,0)"/>
</svg>
