<?xml version="1.0" encoding="UTF-8"?>
<svg version="1.1" xmlns="http://www.w3.org/2000/svg" width="17" height="20">
<path d="M0 0 C0 1.98 0 3.96 0 6 C-2.31 6.33 -4.62 6.66 -7 7 C-7.38218767 8.65614657 -7.71395102 10.32457024 -8 12 C-6.03177114 13.96822886 -2.65191291 13.66248381 0 14 C0.042721 15.66611905 0.04063832 17.33382885 0 19 C-1.56033623 20.56033623 -3.08947136 20.20707559 -5.25 20.25 C-10.47031415 20.20020368 -13.31822112 18.68177888 -17 15 C-17.62722162 11.59249792 -17.58381008 8.41180752 -17 5 C-12.44509202 -1.15528106 -7.21231373 -0.57749843 0 0 Z " fill="#FFFFFF" transform="translate(17,0)"/>
</svg>
