<?xml version="1.0" encoding="UTF-8"?>
<svg version="1.1" xmlns="http://www.w3.org/2000/svg" width="24" height="19">
<path d="M0 0 C3.63 0 7.26 0 11 0 C16.37129841 12.48519362 16.37129841 12.48519362 18 19 C15.03 19 12.06 19 9 19 C9 17.68 9 16.36 9 15 C7.02 15.33 5.04 15.66 3 16 C2.67 16.99 2.34 17.98 2 19 C-0.64 19 -3.28 19 -6 19 C-4.69328927 12.24866125 -2.67767805 6.33717138 0 0 Z M5 6 C4.67 7.32 4.34 8.64 4 10 C4.99 9.67 5.98 9.34 7 9 C6.34 8.01 5.68 7.02 5 6 Z " fill="#FFFFFF" transform="translate(6,0)"/>
</svg>
