<?xml version="1.0" encoding="UTF-8"?>
<svg version="1.1" xmlns="http://www.w3.org/2000/svg" width="20" height="19">
<path d="M0 0 C3.5578125 -0.12375 3.5578125 -0.12375 7.1875 -0.25 C7.92508545 -0.28641602 8.6626709 -0.32283203 9.42260742 -0.36035156 C12.90669826 -0.4186942 14.92323839 -0.04443023 17.94921875 1.70703125 C20.31387455 4.35094164 20.67891415 5.43847187 20.625 8.9375 C20.63789063 9.77152344 20.65078125 10.60554687 20.6640625 11.46484375 C19.68097505 15.21792466 18.08775766 16.69338369 15 19 C12.11628549 19.37353815 10.01710038 19.48712853 7.1875 19.3125 C4.815625 19.209375 2.44375 19.10625 0 19 C0 12.73 0 6.46 0 0 Z M8 5 C8 7.97 8 10.94 8 14 C9.32 13.34 10.64 12.68 12 12 C12 10.35 12 8.7 12 7 C10.68 6.34 9.36 5.68 8 5 Z " fill="#FFFFFF" transform="translate(0,0)"/>
</svg>
